<svg xmlns="http://www.w3.org/2000/svg" width="262.733" height="268.324" viewBox="0 0 262.733 268.324">
  <g id="illustration" transform="translate(-146.752 -215.874)">
    <path id="Path_25" data-name="Path 25" d="M1190.789,1111s22.856,38.964,16.036,71.615h-28.733l-19.591-43.971Z" transform="translate(-862.149 -764.778)" fill="#ff6041"/>
    <path id="Path_26" data-name="Path 26" d="M569.377,1004.795,566.3,996.32s12.451-15.586,30.475-24.525,39.545-11.479,58.41-5.355,31.853,16.732,28.922,21.492-36.439,33.508-36.439,33.508l-64-1.263Z" transform="translate(-355.888 -638.329)" fill="#ff6041"/>
    <path id="Path_27" data-name="Path 27" d="M889.992,840.724a5.852,5.852,0,0,0,.276-1.611l.276-11.929a5.811,5.811,0,0,0-5.66-5.935l-2.467-.058a5.811,5.811,0,0,0-5.935,5.66l-.276,11.929a5.6,5.6,0,0,0,.348,2.09,51.839,51.839,0,0,0-14.454,4.078s21.042,28.878,41.068-1.306A54.829,54.829,0,0,0,889.992,840.724Z" transform="translate(-608.762 -517.024)" fill="#fffefd" stroke="#000" stroke-miterlimit="10" stroke-width="4"/>
    <g id="Group_173" data-name="Group 173" transform="translate(238.826 323.88)">
      <g id="Group_172" data-name="Group 172" transform="translate(19.488)">
        <g id="Group_170" data-name="Group 170">
          <path id="Path_28" data-name="Path 28" d="M896.394,958.948q.435,14.367.856,28.748c.044,1.35.087,2.685.116,4.034.073,2.54,3.8,2.554,3.729,0q-.435-14.367-.856-28.748c-.044-1.35-.087-2.685-.116-4.034-.073-2.54-3.8-2.554-3.729,0Z" transform="translate(-896.393 -957.037)" fill="#020106"/>
        </g>
        <g id="Group_171" data-name="Group 171" transform="translate(31.52)">
          <path id="Path_29" data-name="Path 29" d="M1113.594,958.948q.435,14.367.856,28.748c.044,1.35.087,2.685.116,4.034.073,2.54,3.8,2.554,3.729,0q-.435-14.367-.856-28.748c-.044-1.35-.087-2.685-.116-4.034-.073-2.54-3.8-2.554-3.729,0Z" transform="translate(-1113.593 -957.037)" fill="#020106"/>
        </g>
      </g>
      <path id="Path_30" data-name="Path 30" d="M839.172,1218.215l-6.08-22.537s-13.5-15.919-12.335-43.579h-41.1s-2.365,35.8-13.714,44.885l-3.846,22.029Z" transform="translate(-762.1 -1123.793)" fill="#fff" stroke="#020106" stroke-miterlimit="10" stroke-width="4"/>
    </g>
    <path id="Path_31" data-name="Path 31" d="M1145,976.4s25.439,6.313,33.813,18.967c0,0,21.913,31.2,16.543,72.123" transform="translate(-850.608 -649.711)" fill="none" stroke="#020106" stroke-miterlimit="10" stroke-width="4"/>
    <g id="Group_177" data-name="Group 177" transform="translate(247.427 227.932)">
      <circle id="Ellipse_4" data-name="Ellipse 4" cx="28.225" cy="28.225" r="28.225" transform="translate(0.383 23.238)" fill="#020106"/>
      <circle id="Ellipse_5" data-name="Ellipse 5" cx="11.261" cy="11.261" r="11.261" transform="translate(9.999 15.925) rotate(-45)" fill="#020106"/>
      <g id="Group_176" data-name="Group 176" transform="translate(0 56.403)">
        <g id="Group_174" data-name="Group 174" transform="translate(44.431)">
          <path id="Path_32" data-name="Path 32" d="M1138.779,690.438a5.625,5.625,0,1,1-5.3-5.892A5.6,5.6,0,0,1,1138.779,690.438Z" transform="translate(-1127.538 -684.538)" fill="#fffefd" stroke="#020106" stroke-miterlimit="10" stroke-width="4"/>
        </g>
        <g id="Group_175" data-name="Group 175" transform="translate(0 1.303)">
          <ellipse id="Ellipse_6" data-name="Ellipse 6" cx="5.587" cy="5.631" rx="5.587" ry="5.631" transform="matrix(0.058, -0.998, 0.998, 0.058, 0, 11.155)" fill="#fffefd" stroke="#020106" stroke-miterlimit="10" stroke-width="4"/>
        </g>
      </g>
      <path id="Path_33" data-name="Path 33" d="M924.47,587.949a15.147,15.147,0,0,1-15.948,14.207l-4.963-.29a15.147,15.147,0,0,1-14.207-15.948l.8-13.859A15.147,15.147,0,0,1,906.1,557.851l4.963.29a15.147,15.147,0,0,1,14.207,15.948Z" transform="translate(-879.464 -519.811)" fill="#fffefd" stroke="#020106" stroke-miterlimit="10" stroke-width="4"/>
      <path id="Path_34" data-name="Path 34" d="M839.8,539.442a33.266,33.266,0,0,0,20.969-5.268c10.71-6.806,11.218-9.113,11.218-9.113s2.743,10.956,14.686,12.248-8.5-16.979-13.583-18.59-21.376,1.625-25.657,6.806S837.322,535.742,839.8,539.442Z" transform="translate(-836.62 -486.019)" fill="#020106"/>
    </g>
    <path id="Path_35" data-name="Path 35" d="M1041,685.581s5.95,5.224,8.272-.581" transform="translate(-761.7 -400.598)" fill="#fffefd" stroke="#020106" stroke-linecap="round" stroke-linejoin="round" stroke-miterlimit="10" stroke-width="4"/>
    <path id="Path_36" data-name="Path 36" d="M941.272,686.581S935.322,691.8,933,686" transform="translate(-669.373 -401.453)" fill="#fffefd" stroke="#020106" stroke-linecap="round" stroke-linejoin="round" stroke-miterlimit="10" stroke-width="4"/>
    <g id="Group_179" data-name="Group 179" transform="translate(258.881 288.697)" opacity="0.8">
      <g id="Group_178" data-name="Group 178" transform="translate(0)">
        <path id="Path_37" data-name="Path 37" d="M909.252,726.425c-.014,1.48-2.046,2.641-4.513,2.612s-4.47-1.263-4.441-2.728,2.046-2.641,4.513-2.612S909.266,724.959,909.252,726.425Z" transform="translate(-900.298 -722.376)" fill="#ff6041"/>
        <path id="Path_38" data-name="Path 38" d="M1077.452,717.325c-.015,1.48-2.046,2.641-4.513,2.612s-4.47-1.263-4.441-2.728,2.046-2.641,4.513-2.612S1077.481,715.845,1077.452,717.325Z" transform="translate(-1044.089 -714.596)" fill="#ff6041"/>
      </g>
    </g>
    <path id="Path_39" data-name="Path 39" d="M406.133,1638.511H150L185.046,1569H368.62Z" transform="translate(0 -1156.314)" fill="#fff" stroke="#f56040" stroke-miterlimit="10" stroke-width="4"/>
    <g id="Group_181" data-name="Group 181" transform="translate(272.345 296.611)">
      <g id="Group_180" data-name="Group 180" transform="translate(0 0)">
        <path id="Path_40" data-name="Path 40" d="M993.094,769.9a3.537,3.537,0,0,0,2.148,1.741,4.23,4.23,0,0,0,4.542-.8,2.658,2.658,0,0,0,.726-1.248.363.363,0,0,0-.7-.2c-.015.058-.029.1-.044.16-.014.029-.058.116,0,.014-.014.044-.044.087-.058.131-.044.087-.087.16-.131.232l-.087.131a.255.255,0,0,1-.058.073c.058-.073-.014.014-.029.029a2.739,2.739,0,0,1-1.321.9,4.32,4.32,0,0,1-2.351-.058,3.378,3.378,0,0,1-.914-.377,2.908,2.908,0,0,1-.348-.232c-.014-.015-.072-.058-.014-.015-.029-.015-.044-.044-.073-.058a1.433,1.433,0,0,1-.16-.145,1.867,1.867,0,0,1-.232-.247.2.2,0,0,1-.044-.058c.073.087.015.015,0,0s-.044-.058-.058-.087a1.271,1.271,0,0,1-.087-.145c-.015-.044-.073-.145,0,.029a.379.379,0,0,0-.45-.247.415.415,0,0,0-.261.479Z" transform="translate(-993.076 -769.131)" fill="#0c0c0c"/>
      </g>
    </g>
    <g id="Group_182" data-name="Group 182" transform="translate(277.994 391.499)">
      <path id="Path_41" data-name="Path 41" d="M1062.063,1427H1036v2.54c0,.755.015,1.495.058,2.235,1.538-1.379,5.892-2.554,12.988-3.526C1052.877,1427.726,1057.289,1427.3,1062.063,1427Z" transform="translate(-1035.42 -1426.42)" fill="#fff"/>
      <path id="Path_42" data-name="Path 42" d="M1082.8,1482.4a252.565,252.565,0,0,1-32.318-1.828c-6.821-.929-11.1-2.061-12.785-3.367a45.352,45.352,0,0,0,90.205,0c-1.7,1.306-5.979,2.438-12.785,3.367A252.568,252.568,0,0,1,1082.8,1482.4Z" transform="translate(-1036.873 -1469.335)" fill="#fff"/>
      <path id="Path_43" data-name="Path 43" d="M1124.377,1472.721a45.651,45.651,0,0,1-45.422,41.184h0a45.651,45.651,0,0,1-45.422-41.184,2.121,2.121,0,0,1-.334-.421,45.934,45.934,0,0,0,91.511,0A1.775,1.775,0,0,1,1124.377,1472.721Z" transform="translate(-1033.026 -1465.146)" fill="#020106"/>
      <path id="Path_44" data-name="Path 44" d="M1080.922,1516.179a45.411,45.411,0,0,1-45.1-40.6,3.154,3.154,0,0,1-.319-.276,45.651,45.651,0,0,0,45.422,41.184h0a45.651,45.651,0,0,0,45.422-41.184,3.137,3.137,0,0,1-.319.276A45.411,45.411,0,0,1,1080.922,1516.179Z" transform="translate(-1034.992 -1467.71)" fill="#020106"/>
      <path id="Path_45" data-name="Path 45" d="M1114.178,1428.829a284.959,284.959,0,0,0-64.461,0c-10.289,1.407-12.553,2.989-13.017,3.773.015.261.044.522.058.784.58.813,3.047,2.336,12.944,3.686a284.959,284.959,0,0,0,64.461,0c9.911-1.35,12.379-2.873,12.944-3.686.029-.261.044-.522.058-.784C1126.731,1431.818,1124.467,1430.236,1114.178,1428.829Z" transform="translate(-1036.018 -1426.42)" fill="#ff6041"/>
      <path id="Path_46" data-name="Path 46" d="M1036,1465.948a.76.76,0,0,0,.16.435c-.029-.261-.044-.522-.058-.784A.813.813,0,0,0,1036,1465.948Z" transform="translate(-1035.42 -1459.418)" fill="#fff"/>
      <path id="Path_47" data-name="Path 47" d="M1660.06,1465.948a.813.813,0,0,0-.1-.348c-.015.261-.044.522-.058.784A.76.76,0,0,0,1660.06,1465.948Z" transform="translate(-1568.781 -1459.418)" fill="#fff"/>
      <path id="Path_48" data-name="Path 48" d="M1032,1465.264a1.23,1.23,0,0,0,.174.624l-.087-1.088A1.316,1.316,0,0,0,1032,1465.264Z" transform="translate(-1032 -1458.734)" fill="#020106"/>
      <path id="Path_49" data-name="Path 49" d="M1663.889,1465.264a1.076,1.076,0,0,0-.1-.464c-.029.363-.043.726-.087,1.088A1.121,1.121,0,0,0,1663.889,1465.264Z" transform="translate(-1572.029 -1458.734)" fill="#020106"/>
      <path id="Path_50" data-name="Path 50" d="M1475.005,1431.774c-1.538-1.379-5.892-2.554-12.988-3.526-3.846-.522-8.243-.943-13.032-1.248H1443.5c16.674.726,29.212,2.714,31.476,5.152A3.034,3.034,0,0,0,1475.005,1431.774Z" transform="translate(-1383.784 -1426.42)" fill="#020106"/>
      <path id="Path_51" data-name="Path 51" d="M1037.4,1474.4c.015.131.029.276.044.406,1.7,1.306,5.979,2.438,12.785,3.367a286.514,286.514,0,0,0,64.635,0c6.821-.929,11.1-2.061,12.785-3.367.015-.131.029-.276.044-.406-3.265,3-22.232,5.311-45.146,5.311S1040.665,1477.4,1037.4,1474.4Z" transform="translate(-1036.616 -1466.941)" fill="#020106"/>
      <path id="Path_52" data-name="Path 52" d="M1062.32,1427c-4.774.3-9.186.726-13.032,1.248-7.1.972-11.435,2.148-12.988,3.526,0,.131.015.247.015.377,2.264-2.438,14.8-4.426,31.476-5.152Z" transform="translate(-1035.676 -1426.42)" fill="#020106"/>
      <path id="Path_53" data-name="Path 53" d="M1267.03,1423.29h13.83c-4.412-.189-9.07-.29-13.83-.29s-9.418.1-13.83.29Z" transform="translate(-1221.1 -1423)" fill="#020106"/>
      <path id="Path_54" data-name="Path 54" d="M1033.106,1463.83c-.015-.174-.029-.334-.043-.508a.98.98,0,0,1-.174-.537,1.05,1.05,0,0,1,.1-.406c-.015-.16-.015-.319-.029-.479a1.738,1.738,0,0,0-.261.435c.029.363.044.726.087,1.088A1.565,1.565,0,0,0,1033.106,1463.83Z" transform="translate(-1032.598 -1456.255)" fill="#020106"/>
      <path id="Path_55" data-name="Path 55" d="M1661.616,1462.293a1.049,1.049,0,0,1,.1.406.944.944,0,0,1-.174.537c-.014.174-.029.334-.043.508a2.116,2.116,0,0,0,.334-.421l.087-1.088a1.734,1.734,0,0,0-.261-.435C1661.645,1461.974,1661.631,1462.134,1661.616,1462.293Z" transform="translate(-1570.148 -1456.169)" fill="#020106"/>
      <path id="Path_56" data-name="Path 56" d="M1362.2,1425.29h5.486c-1.771-.116-3.6-.2-5.457-.29H1348.4C1353.218,1425,1357.847,1425.1,1362.2,1425.29Z" transform="translate(-1302.485 -1424.71)" fill="#020106"/>
      <path id="Path_57" data-name="Path 57" d="M1660.514,1459.9c0,.131-.014.247-.014.377a1.534,1.534,0,0,1,.261.392c.015-.16.015-.319.029-.479A2.547,2.547,0,0,0,1660.514,1459.9Z" transform="translate(-1569.294 -1454.545)" fill="#020106"/>
      <path id="Path_58" data-name="Path 58" d="M1035.519,1472.177a2.338,2.338,0,0,1-.319-.377c.015.174.029.334.044.508a3.152,3.152,0,0,0,.319.276C1035.548,1472.438,1035.534,1472.308,1035.519,1472.177Z" transform="translate(-1034.736 -1464.718)" fill="#020106"/>
      <path id="Path_59" data-name="Path 59" d="M1659.344,1472.177c-.015.131-.029.276-.043.406a3.152,3.152,0,0,0,.319-.276c.014-.174.029-.334.043-.508A2.338,2.338,0,0,1,1659.344,1472.177Z" transform="translate(-1568.268 -1464.718)" fill="#020106"/>
      <path id="Path_60" data-name="Path 60" d="M1034.79,1460.277c0-.13-.015-.247-.015-.377a1.73,1.73,0,0,0-.276.29c.015.16.015.319.029.479A1.534,1.534,0,0,1,1034.79,1460.277Z" transform="translate(-1034.137 -1454.545)" fill="#020106"/>
      <path id="Path_61" data-name="Path 61" d="M1221.1,1425.29c4.354-.189,8.983-.29,13.786-.29h-13.83c-1.858.087-3.686.174-5.456.29Z" transform="translate(-1188.957 -1424.71)" fill="#020106"/>
      <path id="Path_62" data-name="Path 62" d="M1049.631,1428.829a251.082,251.082,0,0,1,32.231-1.829h-13.786c-16.674.726-29.212,2.714-31.476,5.152.015.145.015.3.029.45C1037.079,1431.818,1039.343,1430.236,1049.631,1428.829Z" transform="translate(-1035.932 -1426.42)" fill="#020106"/>
      <path id="Path_63" data-name="Path 63" d="M1380.816,1428.829c10.289,1.407,12.553,2.989,13.017,3.773.014-.145.014-.3.029-.45-2.264-2.438-14.8-4.426-31.476-5.152H1348.6A251,251,0,0,1,1380.816,1428.829Z" transform="translate(-1302.656 -1426.42)" fill="#020106"/>
      <path id="Path_64" data-name="Path 64" d="M1114.606,1474.686a284.977,284.977,0,0,1-64.461,0c-9.912-1.35-12.379-2.873-12.945-3.686.015.16.029.319.044.493,3.265,3,22.232,5.311,45.146,5.311s41.881-2.307,45.146-5.311c.015-.16.029-.319.043-.493C1126.984,1471.813,1124.517,1473.336,1114.606,1474.686Z" transform="translate(-1036.445 -1464.034)" fill="#020106"/>
      <path id="Path_65" data-name="Path 65" d="M1661.974,1465.606a1.048,1.048,0,0,0-.1-.406c-.015.319-.044.638-.073.943A.945.945,0,0,0,1661.974,1465.606Z" transform="translate(-1570.405 -1459.076)" fill="#020106"/>
      <path id="Path_66" data-name="Path 66" d="M1034,1465.606a.945.945,0,0,0,.174.537c-.029-.319-.044-.639-.073-.943A1.046,1.046,0,0,0,1034,1465.606Z" transform="translate(-1033.71 -1459.076)" fill="#020106"/>
      <path id="Path_67" data-name="Path 67" d="M1659.731,1462.5c-.015.145-.015.3-.029.45a.647.647,0,0,1,.1.348.76.76,0,0,1-.16.435c-.015.16-.029.319-.044.493a2.31,2.31,0,0,0,.319-.377c.029-.319.044-.639.073-.943A1.385,1.385,0,0,0,1659.731,1462.5Z" transform="translate(-1568.524 -1456.768)" fill="#020106"/>
      <path id="Path_68" data-name="Path 68" d="M1267.286,1425.29h13.786c-4.354-.189-8.983-.29-13.786-.29s-9.433.1-13.786.29Z" transform="translate(-1221.356 -1424.71)" fill="#020106"/>
      <path id="Path_69" data-name="Path 69" d="M1035.092,1464.227c-.015-.16-.029-.319-.044-.493a.761.761,0,0,1-.16-.435.814.814,0,0,1,.1-.348c-.015-.145-.015-.3-.029-.45a1.539,1.539,0,0,0-.261.392c.015.319.044.639.073.943A1.889,1.889,0,0,0,1035.092,1464.227Z" transform="translate(-1034.308 -1456.768)" fill="#020106"/>
    </g>
    <g id="Group_183" data-name="Group 183" transform="translate(350.407 279.932)">
      <path id="Path_70" data-name="Path 70" d="M1551.106,677.661a99.541,99.541,0,0,1-12.756-.726c-2.7-.363-4.383-.813-5.05-1.335a17.9,17.9,0,0,0,35.612,0c-.667.522-2.365.958-5.05,1.335A99.539,99.539,0,0,1,1551.106,677.661Z" transform="translate(-1532.966 -672.495)" fill="#fff" stroke="#020106" stroke-miterlimit="10" stroke-width="3"/>
      <path id="Path_71" data-name="Path 71" d="M1567.5,673.874a18.028,18.028,0,0,1-17.936,16.268h0a18.028,18.028,0,0,1-17.937-16.268.68.68,0,0,1-.131-.174,18.137,18.137,0,0,0,36.134,0A.68.68,0,0,1,1567.5,673.874Z" transform="translate(-1531.427 -670.87)" fill="#020106" stroke="#020106" stroke-miterlimit="10" stroke-width="3"/>
      <path id="Path_72" data-name="Path 72" d="M1550.336,691.052a17.92,17.92,0,0,1-17.806-16.036c-.043-.044-.087-.073-.13-.116a18.028,18.028,0,0,0,17.936,16.268h0a18.028,18.028,0,0,0,17.937-16.268,1.054,1.054,0,0,1-.131.116A17.92,17.92,0,0,1,1550.336,691.052Z" transform="translate(-1532.197 -671.896)" fill="#020106" stroke="#020106" stroke-miterlimit="10" stroke-width="3"/>
      <path id="Path_73" data-name="Path 73" d="M1563.491,656.526a111.976,111.976,0,0,0-25.453,0c-4.063.552-4.963,1.175-5.137,1.495a2.161,2.161,0,0,0,.029.3c.232.319,1.2.929,5.108,1.451a111.976,111.976,0,0,0,25.453,0c3.918-.537,4.891-1.132,5.108-1.451.014-.1.014-.2.029-.3C1568.454,657.7,1567.554,657.077,1563.491,656.526Z" transform="translate(-1532.624 -655.568)" fill="#fff" stroke="#020106" stroke-miterlimit="10" stroke-width="3"/>
      <path id="Path_74" data-name="Path 74" d="M1532.6,671.231a.346.346,0,0,0,.058.174c-.015-.1-.015-.2-.029-.3A.265.265,0,0,0,1532.6,671.231Z" transform="translate(-1532.368 -668.648)" fill="#fff" stroke="#020106" stroke-miterlimit="10" stroke-width="3"/>
      <path id="Path_75" data-name="Path 75" d="M1778.973,671.231a.335.335,0,0,0-.044-.131,2.181,2.181,0,0,1-.029.3A.278.278,0,0,0,1778.973,671.231Z" transform="translate(-1742.926 -668.648)" fill="#fff" stroke="#020106" stroke-miterlimit="10" stroke-width="3"/>
      <path id="Path_76" data-name="Path 76" d="M1531,670.974a.536.536,0,0,0,.073.247c-.014-.145-.029-.29-.029-.421A.386.386,0,0,0,1531,670.974Z" transform="translate(-1531 -668.391)" fill="#020106" stroke="#020106" stroke-miterlimit="10" stroke-width="3"/>
      <path id="Path_77" data-name="Path 77" d="M1780.573,670.974a.386.386,0,0,0-.044-.174c-.015.145-.015.29-.029.421A.489.489,0,0,0,1780.573,670.974Z" transform="translate(-1744.293 -668.391)" fill="#020106" stroke="#020106" stroke-miterlimit="10" stroke-width="3"/>
      <path id="Path_78" data-name="Path 78" d="M1706.036,657.687c-.609-.537-2.322-1.016-5.123-1.393-1.524-.2-3.251-.377-5.152-.493H1693.6c6.588.29,11.537,1.074,12.437,2.032A.487.487,0,0,1,1706.036,657.687Z" transform="translate(-1670.004 -655.568)" fill="#020106" stroke="#020106" stroke-miterlimit="10" stroke-width="3"/>
      <path id="Path_79" data-name="Path 79" d="M1533.1,674.5c0,.058.015.1.015.16.668.522,2.365.958,5.05,1.335a112.487,112.487,0,0,0,25.512,0c2.7-.363,4.382-.813,5.05-1.335,0-.058.015-.1.015-.16-1.292,1.19-8.78,2.1-17.835,2.1S1534.392,675.69,1533.1,674.5Z" transform="translate(-1532.795 -671.554)" fill="#020106" stroke="#020106" stroke-miterlimit="10" stroke-width="3"/>
      <path id="Path_80" data-name="Path 80" d="M1542.974,655.8c-1.886.116-3.628.29-5.152.493-2.8.377-4.513.856-5.123,1.393a.493.493,0,0,0,.015.145c.9-.958,5.848-1.756,12.437-2.032Z" transform="translate(-1532.453 -655.568)" fill="#020106" stroke="#020106" stroke-miterlimit="10" stroke-width="3"/>
      <path id="Path_81" data-name="Path 81" d="M1623.856,654.316h5.457c-1.741-.073-3.584-.116-5.457-.116s-3.715.044-5.456.116Z" transform="translate(-1605.717 -654.2)" fill="#020106" stroke="#020106" stroke-miterlimit="10" stroke-width="3"/>
      <path id="Path_82" data-name="Path 82" d="M1531.46,670.369c0-.073-.015-.131-.015-.2a.432.432,0,0,1-.073-.218.33.33,0,0,1,.044-.16c0-.058-.015-.131-.015-.189a.544.544,0,0,0-.1.174c.015.145.015.29.029.421A.681.681,0,0,0,1531.46,670.369Z" transform="translate(-1531.257 -667.365)" fill="#020106" stroke="#020106" stroke-miterlimit="10" stroke-width="3"/>
      <path id="Path_83" data-name="Path 83" d="M1779.644,669.789a.33.33,0,0,1,.044.16.432.432,0,0,1-.073.218c0,.073-.015.131-.015.2a.684.684,0,0,0,.131-.174c.015-.145.029-.29.029-.421a1.088,1.088,0,0,0-.1-.174A.827.827,0,0,1,1779.644,669.789Z" transform="translate(-1743.524 -667.365)" fill="#020106" stroke="#020106" stroke-miterlimit="10" stroke-width="3"/>
      <path id="Path_84" data-name="Path 84" d="M1661.442,655.116h2.162c-.7-.044-1.422-.087-2.162-.116H1656C1657.9,655,1659.73,655.044,1661.442,655.116Z" transform="translate(-1637.86 -654.884)" fill="#020106" stroke="#020106" stroke-miterlimit="10" stroke-width="3"/>
      <path id="Path_85" data-name="Path 85" d="M1779.215,668.8a.489.489,0,0,1-.015.145.438.438,0,0,1,.1.145c0-.058.015-.131.015-.189Z" transform="translate(-1743.182 -666.681)" fill="#020106" stroke="#020106" stroke-miterlimit="10" stroke-width="3"/>
      <path id="Path_86" data-name="Path 86" d="M1532.331,673.645a.585.585,0,0,1-.13-.145c0,.073.014.131.014.2a1.054,1.054,0,0,0,.131.116A.706.706,0,0,0,1532.331,673.645Z" transform="translate(-1532.026 -670.699)" fill="#020106" stroke="#020106" stroke-miterlimit="10" stroke-width="3"/>
      <path id="Path_87" data-name="Path 87" d="M1778.815,673.56c0,.058-.015.1-.015.16.044-.044.087-.073.131-.116,0-.073.015-.131.015-.2A1.54,1.54,0,0,1,1778.815,673.56Z" transform="translate(-1742.84 -670.614)" fill="#020106" stroke="#020106" stroke-miterlimit="10" stroke-width="3"/>
      <path id="Path_88" data-name="Path 88" d="M1532.116,669.045a.5.5,0,0,0-.014-.145.727.727,0,0,0-.1.116c0,.058.015.131.015.189A.376.376,0,0,1,1532.116,669.045Z" transform="translate(-1531.855 -666.767)" fill="#020106" stroke="#020106" stroke-miterlimit="10" stroke-width="3"/>
      <path id="Path_89" data-name="Path 89" d="M1605.677,655.116c1.713-.073,3.541-.116,5.442-.116h-5.456c-.74.029-1.451.073-2.162.116Z" transform="translate(-1592.979 -654.884)" fill="#020106" stroke="#020106" stroke-miterlimit="10" stroke-width="3"/>
      <path id="Path_90" data-name="Path 90" d="M1537.952,656.526a99.067,99.067,0,0,1,12.727-.726h-5.442c-6.588.29-11.537,1.074-12.437,2.032,0,.058.015.116.015.174C1532.989,657.7,1533.889,657.077,1537.952,656.526Z" transform="translate(-1532.539 -655.568)" fill="#020106" stroke="#020106" stroke-miterlimit="10" stroke-width="3"/>
      <path id="Path_91" data-name="Path 91" d="M1668.727,656.608c4.063.552,4.963,1.175,5.137,1.495,0-.058.014-.116.014-.174-.9-.958-5.848-1.756-12.437-2.032H1656A96.756,96.756,0,0,1,1668.727,656.608Z" transform="translate(-1637.86 -655.65)" fill="#020106" stroke="#020106" stroke-miterlimit="10" stroke-width="3"/>
      <path id="Path_92" data-name="Path 92" d="M1563.662,674.751a111.978,111.978,0,0,1-25.454,0c-3.918-.537-4.89-1.132-5.108-1.451,0,.058.015.131.015.189,1.292,1.19,8.78,2.1,17.835,2.1s16.543-.914,17.835-2.1c0-.058.015-.131.015-.189C1568.552,673.6,1567.58,674.214,1563.662,674.751Z" transform="translate(-1532.795 -670.528)" fill="#020106" stroke="#020106" stroke-miterlimit="10" stroke-width="3"/>
      <path id="Path_93" data-name="Path 93" d="M1779.772,671.06a.33.33,0,0,0-.043-.16c-.015.131-.015.247-.029.377A.431.431,0,0,0,1779.772,671.06Z" transform="translate(-1743.609 -668.477)" fill="#020106" stroke="#020106" stroke-miterlimit="10" stroke-width="3"/>
      <path id="Path_94" data-name="Path 94" d="M1531.8,671.06a.432.432,0,0,0,.073.218c-.015-.131-.015-.247-.029-.377A.378.378,0,0,0,1531.8,671.06Z" transform="translate(-1531.684 -668.477)" fill="#020106" stroke="#020106" stroke-miterlimit="10" stroke-width="3"/>
      <path id="Path_95" data-name="Path 95" d="M1778.944,669.9c0,.058-.015.116-.015.174a.335.335,0,0,1,.044.131.347.347,0,0,1-.058.174c0,.058-.014.131-.014.189a.588.588,0,0,0,.13-.145c.015-.131.015-.247.029-.377A1.023,1.023,0,0,0,1778.944,669.9Z" transform="translate(-1742.926 -667.622)" fill="#020106" stroke="#020106" stroke-miterlimit="10" stroke-width="3"/>
      <path id="Path_96" data-name="Path 96" d="M1623.942,655.116h5.442c-1.712-.073-3.541-.116-5.442-.116s-3.729.044-5.442.116Z" transform="translate(-1605.802 -654.884)" fill="#020106" stroke="#020106" stroke-miterlimit="10" stroke-width="3"/>
      <path id="Path_97" data-name="Path 97" d="M1532.245,670.568c0-.058-.014-.131-.014-.189a.245.245,0,0,1-.058-.174.335.335,0,0,1,.044-.131c0-.058-.015-.116-.015-.174a.446.446,0,0,0-.1.145c.015.131.015.247.029.377A1.023,1.023,0,0,0,1532.245,670.568Z" transform="translate(-1531.94 -667.622)" fill="#020106" stroke="#020106" stroke-miterlimit="10" stroke-width="3"/>
    </g>
    <g id="Group_184" data-name="Group 184" transform="translate(172.783 452.768)">
      <path id="Path_98" data-name="Path 98" d="M327.106,1868.661a99.551,99.551,0,0,1-12.756-.726c-2.7-.363-4.383-.813-5.05-1.335a17.9,17.9,0,0,0,35.612,0c-.668.522-2.365.958-5.05,1.335A99.552,99.552,0,0,1,327.106,1868.661Z" transform="translate(-308.966 -1863.495)" fill="#fff" stroke="#f56040" stroke-miterlimit="10" stroke-width="3"/>
      <path id="Path_99" data-name="Path 99" d="M343.5,1864.874a18.028,18.028,0,0,1-17.937,16.268h0a18.028,18.028,0,0,1-17.937-16.268.685.685,0,0,1-.131-.174,18.137,18.137,0,0,0,36.134,0A.684.684,0,0,1,343.5,1864.874Z" transform="translate(-307.427 -1861.87)" fill="#020106" stroke="#f56040" stroke-miterlimit="10" stroke-width="3"/>
      <path id="Path_100" data-name="Path 100" d="M326.337,1882.052a17.92,17.92,0,0,1-17.806-16.035c-.044-.044-.087-.073-.131-.116a18.028,18.028,0,0,0,17.937,16.268h0a18.028,18.028,0,0,0,17.937-16.268,1.057,1.057,0,0,1-.131.116A17.92,17.92,0,0,1,326.337,1882.052Z" transform="translate(-308.197 -1862.896)" fill="#020106" stroke="#f56040" stroke-miterlimit="10" stroke-width="3"/>
      <path id="Path_101" data-name="Path 101" d="M339.491,1847.526a111.959,111.959,0,0,0-25.454,0c-4.063.551-4.963,1.175-5.137,1.495a2.164,2.164,0,0,0,.029.3c.232.319,1.2.929,5.108,1.451a111.977,111.977,0,0,0,25.454,0c3.918-.537,4.89-1.132,5.108-1.451.014-.1.014-.2.029-.3C344.454,1848.7,343.554,1848.077,339.491,1847.526Z" transform="translate(-308.624 -1846.568)" fill="#fff" stroke="#f56040" stroke-miterlimit="10" stroke-width="3"/>
      <path id="Path_102" data-name="Path 102" d="M308.6,1862.231a.345.345,0,0,0,.058.174c-.014-.1-.014-.2-.029-.3A.265.265,0,0,0,308.6,1862.231Z" transform="translate(-308.368 -1859.647)" fill="#fff" stroke="#f56040" stroke-miterlimit="10" stroke-width="3"/>
      <path id="Path_103" data-name="Path 103" d="M554.973,1862.231a.334.334,0,0,0-.044-.131,2.16,2.16,0,0,1-.029.3A.277.277,0,0,0,554.973,1862.231Z" transform="translate(-518.925 -1859.647)" fill="#fff" stroke="#f56040" stroke-miterlimit="10" stroke-width="3"/>
      <path id="Path_104" data-name="Path 104" d="M307,1861.974a.535.535,0,0,0,.073.247c-.014-.145-.029-.29-.029-.421A.387.387,0,0,0,307,1861.974Z" transform="translate(-307 -1859.391)" fill="#020106" stroke="#f56040" stroke-miterlimit="10" stroke-width="3"/>
      <path id="Path_105" data-name="Path 105" d="M556.573,1861.974a.387.387,0,0,0-.044-.174c-.015.145-.015.29-.029.421A.489.489,0,0,0,556.573,1861.974Z" transform="translate(-520.293 -1859.391)" fill="#020106" stroke="#f56040" stroke-miterlimit="10" stroke-width="3"/>
      <path id="Path_106" data-name="Path 106" d="M482.037,1848.687c-.609-.537-2.322-1.016-5.123-1.393-1.524-.2-3.251-.377-5.152-.493H469.6c6.588.29,11.537,1.074,12.437,2.032A.484.484,0,0,1,482.037,1848.687Z" transform="translate(-446.004 -1846.568)" fill="#020106" stroke="#f56040" stroke-miterlimit="10" stroke-width="3"/>
      <path id="Path_107" data-name="Path 107" d="M309.1,1865.5c0,.058.015.1.015.16.668.522,2.365.958,5.05,1.335a112.506,112.506,0,0,0,25.512,0c2.7-.363,4.383-.813,5.05-1.335,0-.058.015-.1.015-.16-1.292,1.19-8.78,2.1-17.835,2.1S310.392,1866.69,309.1,1865.5Z" transform="translate(-308.795 -1862.554)" fill="#020106" stroke="#f56040" stroke-miterlimit="10" stroke-width="3"/>
      <path id="Path_108" data-name="Path 108" d="M318.974,1846.8c-1.887.116-3.628.29-5.152.493-2.8.377-4.513.856-5.123,1.393a.493.493,0,0,0,.015.145c.9-.958,5.848-1.756,12.437-2.032Z" transform="translate(-308.453 -1846.568)" fill="#020106" stroke="#f56040" stroke-miterlimit="10" stroke-width="3"/>
      <path id="Path_109" data-name="Path 109" d="M399.856,1845.316h5.456c-1.741-.073-3.584-.116-5.456-.116s-3.715.043-5.456.116Z" transform="translate(-381.717 -1845.2)" fill="#020106" stroke="#f56040" stroke-miterlimit="10" stroke-width="3"/>
      <path id="Path_110" data-name="Path 110" d="M307.46,1861.369c0-.073-.014-.131-.014-.2a.432.432,0,0,1-.073-.218.331.331,0,0,1,.044-.16c0-.058-.014-.131-.014-.189a.544.544,0,0,0-.1.174c.015.145.015.29.029.421A.684.684,0,0,0,307.46,1861.369Z" transform="translate(-307.256 -1858.365)" fill="#020106" stroke="#f56040" stroke-miterlimit="10" stroke-width="3"/>
      <path id="Path_111" data-name="Path 111" d="M555.644,1860.789a.331.331,0,0,1,.044.16.432.432,0,0,1-.073.218c0,.073-.014.131-.014.2a.681.681,0,0,0,.131-.174c.015-.145.029-.29.029-.421a1.082,1.082,0,0,0-.1-.174A.827.827,0,0,1,555.644,1860.789Z" transform="translate(-519.524 -1858.365)" fill="#020106" stroke="#f56040" stroke-miterlimit="10" stroke-width="3"/>
      <path id="Path_112" data-name="Path 112" d="M437.442,1846.116H439.6c-.7-.044-1.422-.087-2.162-.116H432C433.9,1846,435.73,1846.044,437.442,1846.116Z" transform="translate(-413.86 -1845.884)" fill="#020106" stroke="#f56040" stroke-miterlimit="10" stroke-width="3"/>
      <path id="Path_113" data-name="Path 113" d="M555.215,1859.8a.493.493,0,0,1-.015.145.443.443,0,0,1,.1.145c0-.058.015-.13.015-.189Z" transform="translate(-519.182 -1857.681)" fill="#020106" stroke="#f56040" stroke-miterlimit="10" stroke-width="3"/>
      <path id="Path_114" data-name="Path 114" d="M308.331,1864.645a.589.589,0,0,1-.131-.145c0,.073.015.131.015.2a1.075,1.075,0,0,0,.131.116A.707.707,0,0,0,308.331,1864.645Z" transform="translate(-308.026 -1861.699)" fill="#020106" stroke="#f56040" stroke-miterlimit="10" stroke-width="3"/>
      <path id="Path_115" data-name="Path 115" d="M554.815,1864.56c0,.058-.015.1-.015.16.044-.044.087-.073.131-.116,0-.073.014-.131.014-.2A1.541,1.541,0,0,1,554.815,1864.56Z" transform="translate(-518.84 -1861.614)" fill="#020106" stroke="#f56040" stroke-miterlimit="10" stroke-width="3"/>
      <path id="Path_116" data-name="Path 116" d="M308.116,1860.045a.493.493,0,0,0-.015-.145.722.722,0,0,0-.1.116c0,.058.014.131.014.189A.375.375,0,0,1,308.116,1860.045Z" transform="translate(-307.855 -1857.767)" fill="#020106" stroke="#f56040" stroke-miterlimit="10" stroke-width="3"/>
      <path id="Path_117" data-name="Path 117" d="M381.677,1846.116c1.712-.073,3.541-.116,5.442-.116h-5.456c-.74.029-1.451.073-2.162.116Z" transform="translate(-368.979 -1845.884)" fill="#020106" stroke="#f56040" stroke-miterlimit="10" stroke-width="3"/>
      <path id="Path_118" data-name="Path 118" d="M313.952,1847.526a99.065,99.065,0,0,1,12.727-.726h-5.442c-6.588.29-11.537,1.074-12.437,2.032,0,.058.015.116.015.174C308.989,1848.7,309.888,1848.077,313.952,1847.526Z" transform="translate(-308.539 -1846.568)" fill="#020106" stroke="#f56040" stroke-miterlimit="10" stroke-width="3"/>
      <path id="Path_119" data-name="Path 119" d="M444.727,1847.608c4.063.552,4.963,1.176,5.137,1.495,0-.058.015-.116.015-.174-.9-.958-5.848-1.756-12.437-2.032H432A96.778,96.778,0,0,1,444.727,1847.608Z" transform="translate(-413.86 -1846.65)" fill="#020106" stroke="#f56040" stroke-miterlimit="10" stroke-width="3"/>
      <path id="Path_120" data-name="Path 120" d="M339.662,1865.751a111.959,111.959,0,0,1-25.454,0c-3.918-.537-4.89-1.132-5.108-1.451,0,.058.015.131.015.189,1.292,1.19,8.78,2.1,17.835,2.1s16.543-.914,17.835-2.1c0-.058.015-.131.015-.189C344.552,1864.6,343.58,1865.214,339.662,1865.751Z" transform="translate(-308.795 -1861.528)" fill="#020106" stroke="#f56040" stroke-miterlimit="10" stroke-width="3"/>
      <path id="Path_121" data-name="Path 121" d="M555.773,1862.06a.331.331,0,0,0-.044-.16c-.015.131-.015.247-.029.377A.432.432,0,0,0,555.773,1862.06Z" transform="translate(-519.609 -1859.477)" fill="#020106" stroke="#f56040" stroke-miterlimit="10" stroke-width="3"/>
      <path id="Path_122" data-name="Path 122" d="M307.8,1862.06a.432.432,0,0,0,.073.218c-.015-.131-.015-.247-.029-.377A.379.379,0,0,0,307.8,1862.06Z" transform="translate(-307.684 -1859.477)" fill="#020106" stroke="#f56040" stroke-miterlimit="10" stroke-width="3"/>
      <path id="Path_123" data-name="Path 123" d="M554.944,1860.9c0,.058-.014.116-.014.174a.335.335,0,0,1,.044.131.346.346,0,0,1-.058.174c0,.058-.015.131-.015.189a.591.591,0,0,0,.131-.145c.014-.131.014-.247.029-.377A1.012,1.012,0,0,0,554.944,1860.9Z" transform="translate(-518.925 -1858.622)" fill="#020106" stroke="#f56040" stroke-miterlimit="10" stroke-width="3"/>
      <path id="Path_124" data-name="Path 124" d="M399.942,1846.116h5.442c-1.712-.073-3.541-.116-5.442-.116s-3.73.044-5.442.116Z" transform="translate(-381.802 -1845.884)" fill="#020106" stroke="#f56040" stroke-miterlimit="10" stroke-width="3"/>
      <path id="Path_125" data-name="Path 125" d="M308.245,1861.568c0-.058-.015-.131-.015-.189a.245.245,0,0,1-.058-.174.334.334,0,0,1,.044-.131c0-.058-.015-.116-.015-.174a.443.443,0,0,0-.1.145c.015.131.015.247.029.377A1.023,1.023,0,0,0,308.245,1861.568Z" transform="translate(-307.94 -1858.622)" fill="#020106" stroke="#f56040" stroke-miterlimit="10" stroke-width="3"/>
    </g>
    <path id="Path_126" data-name="Path 126" d="M1120.967,1107.472h-1.211l-6.347-7.848,3.949,7.435-48.216-60.7a2.56,2.56,0,0,1,.414-3.6h0C1070.668,1041.867,1121.5,1107.049,1120.967,1107.472Z" transform="translate(-785.28 -705.947)" fill="#fff" stroke="#020106" stroke-miterlimit="10" stroke-width="4"/>
    <g id="Group_186" data-name="Group 186" transform="translate(199.129 327.749)">
      <path id="Path_127" data-name="Path 127" d="M526.483,1181.722s18.459-.827,23.727-2.09,9.055-2.482,9.055-2.482l10.9,18.053s-14.831,12.248-31.781,17.835c0,0-16.427,5.064-25.845,3.178s-17.6-5.152-19.838-12.6-2.772-23.422,9.607-37.107S524.553,1175.279,526.483,1181.722Z" transform="translate(-491.023 -1136.272)" fill="#ff6041"/>
      <path id="Path_128" data-name="Path 128" d="M938.947,1265.057l-5.268-8.939s-2-1.712,1.03-2.772,6.719-2.685,6.719-2.685,1.364-.856,2.8,1.2,8.867,12,8.867,12,1.35,2.322,0,3.105-8.533,6.182-8.533,6.182-.726.537-1.988-1.727S938.947,1265.057,938.947,1265.057Z" transform="translate(-868.529 -1211.77)" fill="#fff"/>
      <path id="Path_129" data-name="Path 129" d="M1005.24,1098.4s-3.091-2.09-.914-3.512,12.611-9.331,15.934-12.219,11.29-9.882,11.29-9.882,3.135-2.888,4.063-2.8.8,1.8,0,2.9a9.544,9.544,0,0,0-1.2,2.293s3.193-4.107,4.412-4.092.247,2.278-.392,3.41a28.926,28.926,0,0,0-1.48,3.7s4.687-5.442,5.819-4.833-2.67,6.226-2.67,6.226,3.4-3.164,4.6-2.99-2.148,4.6-6.98,10.768-18.735,20.389-18.735,20.389l-2.9,2.235s-1.379,1.727-2.409,0C1012.612,1108.256,1005.951,1099.215,1005.24,1098.4Z" transform="translate(-928.813 -1057.465)" fill="#fff"/>
      <g id="Group_185" data-name="Group 185" transform="translate(0)">
        <path id="Path_130" data-name="Path 130" d="M543.38,983.7c-52.489,19.185-67.828,65.869-43.709,76.985,24.859,11.464,57.728-9.52,71.528-20.534s35.075-35.888,33.551-37.194-9.084,8.214-9.084,8.214,8.431-10.158,7.227-11.464-9.389,8.214-9.389,8.214,6.922-9.52,5.616-10.594-8.547,8.431-8.547,8.431,6.806-8.431,5.079-9.52-17.3,15.789-31.621,24.859-41.678,8-41.678,8" transform="translate(-488.547 -983.7)" fill="none" stroke="#020106" stroke-miterlimit="10" stroke-width="4"/>
        <path id="Path_131" data-name="Path 131" d="M928.9,1274.8s8.968,14.918,11.334,19.693" transform="translate(-864.997 -1232.556)" fill="none" stroke="#020106" stroke-miterlimit="10" stroke-width="1"/>
      </g>
    </g>
    <path id="Path_132" data-name="Path 132" d="M1104.006,1454.161a11.9,11.9,0,0,0-8.417,3.483,11.912,11.912,0,0,0-14.166-.8,11.991,11.991,0,0,0-8.786-3.846,11.869,11.869,0,0,0-7.1,2.351,11.87,11.87,0,0,0-7.1-2.351,12.024,12.024,0,0,0-8.942,4.02c1.746.74,4.94,1.625,10.759,2.438.525.073,1.064.145,1.6.218,2.385.3,4.954.566,7.679.784,2.541.2,5.209.377,7.977.508,2.115.1,4.287.174,6.515.232q3.811.087,7.75.087h1.715c1.859,0,2.151.317,3.968.274,5.678-.116,12.16-.738,17.057-1.145A12.03,12.03,0,0,0,1104.006,1454.161Z" transform="translate(-762.523 -1059.761)" fill="#fff" stroke="#f56040" stroke-miterlimit="10" stroke-width="4"/>
    <g id="Group_196" data-name="Group 196" transform="translate(218.259 419.785)">
      <g id="Group_195" data-name="Group 195">
        <g id="Group_194" data-name="Group 194">
          <g id="Group_187" data-name="Group 187" transform="translate(26.184 10.733)">
            <path id="Path_133" data-name="Path 133" d="M809.441,1692.085a3.988,3.988,0,0,1,2.714,1.814,4.864,4.864,0,0,1-.1,4.179,6.593,6.593,0,0,1-6.559,3.744,3.723,3.723,0,0,1-.653-.116c-1.088-.247-3.193-.972-3.846-2.946a4.515,4.515,0,0,1,.232-3.135c1.059-2.6,4.121-3.817,6.559-3.744A10.562,10.562,0,0,1,809.441,1692.085Z" transform="translate(-800.807 -1691.879)" fill="#ff6041"/>
          </g>
          <g id="Group_188" data-name="Group 188" transform="translate(37.367 25.885)">
            <path id="Path_134" data-name="Path 134" d="M885.286,1796.463a5.554,5.554,0,0,1,3.817,2.7,4.668,4.668,0,0,1-.029,3.889,6.433,6.433,0,0,1-6.487,3.381,6.317,6.317,0,0,1-.653-.116c-1.088-.247-3.193-.958-3.875-2.8a4.29,4.29,0,0,1,.174-2.917,6.128,6.128,0,0,1,2.685-3.657A6.4,6.4,0,0,1,885.286,1796.463Z" transform="translate(-877.866 -1796.287)" fill="#ff6041"/>
          </g>
          <g id="Group_189" data-name="Group 189" transform="translate(0.455 0.604)">
            <path id="Path_135" data-name="Path 135" d="M679.872,1632.735c1.8.406,2.8,2.743,2.249,5.2l-5.137,22.275c-.566,2.453-2.5,4.121-4.3,3.715L625.9,1653.327c-1.8-.406-2.8-2.743-2.235-5.2l5.123-22.276c.566-2.452,2.5-4.121,4.3-3.715Zm-22.29,17.675a4.885,4.885,0,0,0,.087-4.179,3.989,3.989,0,0,0-2.714-1.814,8.742,8.742,0,0,0-1.669-.189c-2.438-.087-5.514,1.146-6.559,3.744a4.616,4.616,0,0,0-.232,3.135c.653,1.974,2.757,2.7,3.846,2.946a6.275,6.275,0,0,0,.653.116,6.663,6.663,0,0,0,6.588-3.759m2.9-11.987a4.924,4.924,0,0,0,.1-4.179,3.956,3.956,0,0,0-2.714-1.814,8.724,8.724,0,0,0-1.669-.189c-2.438-.087-5.515,1.146-6.559,3.744a4.616,4.616,0,0,0-.232,3.135c.653,1.974,2.757,2.7,3.846,2.946a6.312,6.312,0,0,0,.653.116,6.656,6.656,0,0,0,6.574-3.759m11.145,15.7a4.668,4.668,0,0,0,.029-3.889,5.555,5.555,0,0,0-3.817-2.7,6.4,6.4,0,0,0-4.368.479,6.128,6.128,0,0,0-2.685,3.657,4.289,4.289,0,0,0-.174,2.917c.682,1.843,2.786,2.554,3.875,2.8a3.719,3.719,0,0,0,.653.116,6.432,6.432,0,0,0,6.487-3.381m-35.1-3.251c2.278.247,5.877-.755,6.559-3.744a5.335,5.335,0,0,0-4.281-6.2c-3.018-.682-5.674,1.538-6.559,3.744a4.616,4.616,0,0,0-.232,3.135c.653,1.974,2.757,2.7,3.846,2.946.363.073.609.1.668.116m2.9-11.987c2.278.247,5.877-.755,6.559-3.744a5.324,5.324,0,0,0-4.281-6.2c-3.018-.682-5.674,1.538-6.559,3.744a4.616,4.616,0,0,0-.232,3.135c.653,1.974,2.757,2.7,3.846,2.946.363.073.609.1.667.116" transform="translate(-623.51 -1622.08)" fill="#fff"/>
          </g>
          <g id="Group_190" data-name="Group 190" transform="translate(11.687 7.346)">
            <path id="Path_136" data-name="Path 136" d="M707.872,1668.661a5.335,5.335,0,0,1,4.281,6.2c-.682,2.975-4.281,3.991-6.559,3.744a3.717,3.717,0,0,1-.653-.116c-1.088-.247-3.193-.972-3.846-2.946a4.515,4.515,0,0,1,.232-3.135C702.212,1670.2,704.868,1667.979,707.872,1668.661Z" transform="translate(-700.907 -1668.536)" fill="#ff6041"/>
          </g>
          <g id="Group_191" data-name="Group 191" transform="translate(8.785 19.333)">
            <path id="Path_137" data-name="Path 137" d="M687.872,1751.261a5.335,5.335,0,0,1,4.281,6.2c-.682,2.975-4.281,3.991-6.559,3.744a3.707,3.707,0,0,1-.653-.116c-1.088-.247-3.193-.972-3.846-2.946a4.528,4.528,0,0,1,.232-3.135C682.2,1752.8,684.868,1750.579,687.872,1751.261Z" transform="translate(-680.907 -1751.136)" fill="#ff6041"/>
          </g>
          <g id="Group_192" data-name="Group 192" transform="translate(23.296 22.72)">
            <path id="Path_138" data-name="Path 138" d="M789.526,1774.685a3.987,3.987,0,0,1,2.714,1.814,4.931,4.931,0,0,1-.087,4.179,6.593,6.593,0,0,1-6.559,3.744,3.718,3.718,0,0,1-.653-.116c-1.088-.247-3.193-.972-3.846-2.946a4.528,4.528,0,0,1,.232-3.135c1.059-2.6,4.121-3.817,6.559-3.744A10.82,10.82,0,0,1,789.526,1774.685Z" transform="translate(-780.907 -1774.479)" fill="#ff6041"/>
          </g>
          <g id="Group_193" data-name="Group 193">
            <path id="Path_139" data-name="Path 139" d="M677.335,1628.58c2.046.464,3.178,3.105,2.54,5.892l-5.137,22.275c-.638,2.786-2.83,4.673-4.861,4.208l-46.786-10.594c-2.046-.464-3.178-3.106-2.54-5.892l5.123-22.276c.638-2.786,2.83-4.673,4.861-4.208Zm-3.033,28.066,5.123-22.276c.566-2.452-.435-4.789-2.249-5.2l-46.786-10.594c-1.8-.406-3.73,1.262-4.3,3.715l-5.123,22.276c-.566,2.452.435,4.789,2.235,5.2l46.786,10.594c1.828.406,3.744-1.248,4.31-3.715" transform="translate(-620.373 -1617.916)" fill="#020106"/>
          </g>
        </g>
      </g>
    </g>
    <g id="Group_197" data-name="Group 197" transform="translate(325.505 298.928)">
      <path id="Path_140" data-name="Path 140" d="M1423.981,793.574c-1.988-.044-4.963-.1-8.562-.116-5.8-.014-10,.116-14.076.232-13.365.377-20.041.566-22.348.566-4.281,0-10.448-.131-17.995-.682V787c3.454.319,8.693.726,15.092.914,8.983.247,14.715-.1,26.556-.45,5.094-.16,12.408-.348,21.332-.45Z" transform="translate(-1360.768 -786.724)" fill="#fffefd"/>
      <path id="Path_141" data-name="Path 141" d="M1422.642,791.979l-3.918.044-3.976.043c-.668,0-1.321.015-1.974.029l-1.974.029c-1.306.029-2.627.058-3.933.1-5.239.145-10.492.363-15.745.479l-3.933.073-3.933.044c-1.306.015-2.627.029-3.947.029s-2.627-.029-3.947-.058c-5.253-.131-10.507-.348-15.745-.7l-.145-.015v-.145l-.073-6.574V785.1l.261.014c2.612.2,5.239.363,7.851.493s5.239.218,7.865.261,5.239.058,7.865.015c1.306-.015,2.627-.058,3.933-.1l3.933-.116c2.627-.087,5.253-.174,7.88-.247l1.974-.058c.653-.014,1.32-.014,1.974-.029l3.947-.044c2.627-.029,5.253-.073,7.88-.087l7.88-.044h.189v.189Zm-.058-.058-.16-6.545.189.189-7.88.29c-2.627.1-5.253.16-7.865.247s-5.253.145-7.865.247-5.253.2-7.88.276c-5.253.189-10.521.247-15.774.073s-10.507-.522-15.731-1.088l.261-.232-.073,6.574-.145-.16c5.224.421,10.478.653,15.731.638,1.306,0,2.627-.015,3.933-.058l3.933-.145,3.933-.16,3.933-.145,3.933-.116,3.933-.1c2.627-.073,5.253-.116,7.88-.145,1.321-.015,2.627-.015,3.947,0,.653,0,1.321.014,1.974.014s1.321.015,1.959.044Z" transform="translate(-1359.4 -785.1)" fill="#020106"/>
    </g>
    <g id="Group_198" data-name="Group 198" transform="translate(325.505 247.847)">
      <path id="Path_142" data-name="Path 142" d="M1423.981,441.574c-1.988-.044-4.963-.1-8.562-.116-5.8-.015-10,.116-14.076.232-13.365.377-20.041.566-22.348.566-4.281,0-10.448-.131-17.995-.682V435c3.454.319,8.693.726,15.092.914,8.983.247,14.715-.1,26.556-.45,5.094-.16,12.408-.348,21.332-.45Z" transform="translate(-1360.768 -434.724)" fill="#fffefd"/>
      <path id="Path_143" data-name="Path 143" d="M1422.642,439.979l-3.918.044-3.976.044c-.668,0-1.321.015-1.974.029l-1.974.029c-1.306.029-2.627.058-3.933.1-5.239.145-10.492.363-15.745.479l-3.933.073-3.933.044c-1.306.015-2.627.029-3.947.029s-2.627-.029-3.947-.058c-5.253-.131-10.507-.348-15.745-.7l-.145-.015v-.145l-.073-6.574V433.1l.261.014c2.612.2,5.239.363,7.851.493s5.239.218,7.865.261,5.239.058,7.865.015c1.306-.015,2.627-.058,3.933-.1l3.933-.116c2.627-.087,5.253-.174,7.88-.247l1.974-.058c.653-.014,1.32-.014,1.974-.029l3.947-.044c2.627-.029,5.253-.073,7.88-.087l7.88-.044h.189v.189Zm-.058-.058-.16-6.545.189.189-7.88.29c-2.627.1-5.253.16-7.865.247s-5.253.145-7.865.247-5.253.2-7.88.276c-5.253.189-10.521.247-15.774.073s-10.507-.522-15.731-1.088l.261-.232-.073,6.574-.145-.16c5.224.421,10.478.653,15.731.639,1.306,0,2.627-.014,3.933-.058l3.933-.145,3.933-.16,3.933-.145,3.933-.116,3.933-.1c2.627-.073,5.253-.116,7.88-.145,1.321-.014,2.627-.014,3.947,0,.653,0,1.321.014,1.974.014s1.321.015,1.959.044Z" transform="translate(-1359.4 -433.1)" fill="#020106"/>
    </g>
    <g id="Group_199" data-name="Group 199" transform="translate(332.123 267.191)">
      <path id="Path_144" data-name="Path 144" d="M1413.794,585.979V580h-5.065v6.008a6.317,6.317,0,0,0-3.73,5.747V610.62h12.582V591.755A6.339,6.339,0,0,0,1413.794,585.979Z" transform="translate(-1405 -578.026)" fill="#fff" stroke="#020106" stroke-miterlimit="10" stroke-width="5"/>
      <path id="Path_145" data-name="Path 145" d="M1421.9,694.706h-4.745a2.289,2.289,0,0,1-2.278-2.09,53.326,53.326,0,0,1,0-9.012v-.015a2.289,2.289,0,0,1,2.278-2.09h4.208a2.272,2.272,0,0,1,2.278,2.482,14.933,14.933,0,0,0-.058,1.654,34.981,34.981,0,0,0,.435,3.773,26.9,26.9,0,0,1,.174,3.018A2.285,2.285,0,0,1,1421.9,694.706Z" transform="translate(-1413.28 -664.797)" fill="#ff6041"/>
      <ellipse id="Ellipse_7" data-name="Ellipse 7" cx="3.628" cy="1.858" rx="3.628" ry="1.858" transform="translate(2.757)" fill="#020106"/>
    </g>
    <g id="Group_200" data-name="Group 200" transform="translate(332.123 216.4)">
      <path id="Path_146" data-name="Path 146" d="M1413.794,235.979V230h-5.065v6.008a6.317,6.317,0,0,0-3.73,5.747V260.62h12.582V241.755A6.339,6.339,0,0,0,1413.794,235.979Z" transform="translate(-1405 -228.026)" fill="#fff" stroke="#020106" stroke-miterlimit="10" stroke-width="5"/>
      <path id="Path_147" data-name="Path 147" d="M1421.9,344.706h-4.745a2.289,2.289,0,0,1-2.278-2.09,53.326,53.326,0,0,1,0-9.012v-.015a2.289,2.289,0,0,1,2.278-2.09h4.208a2.272,2.272,0,0,1,2.278,2.482,14.932,14.932,0,0,0-.058,1.654,34.98,34.98,0,0,0,.435,3.773,26.9,26.9,0,0,1,.174,3.018A2.285,2.285,0,0,1,1421.9,344.706Z" transform="translate(-1413.28 -314.797)" fill="#ff6041"/>
      <ellipse id="Ellipse_8" data-name="Ellipse 8" cx="3.628" cy="1.858" rx="3.628" ry="1.858" transform="translate(2.757 0)" fill="#020106"/>
    </g>
    <g id="Group_201" data-name="Group 201" transform="translate(177.63 384.823)">
      <path id="Path_148" data-name="Path 148" d="M355.405,1410.4v-10.2h-8.649v10.245a10.722,10.722,0,0,0-6.356,9.8v32.173h21.448v-32.173A10.745,10.745,0,0,0,355.405,1410.4Z" transform="translate(-340.4 -1396.833)" fill="#fff" stroke="#020106" stroke-miterlimit="10" stroke-width="5"/>
      <path id="Path_149" data-name="Path 149" d="M369.292,1595.737h-8.1a3.912,3.912,0,0,1-3.889-3.57,92,92,0,0,1,0-15.368v-.043a3.886,3.886,0,0,1,3.875-3.555h7.183a3.888,3.888,0,0,1,3.889,4.237,21.906,21.906,0,0,0-.1,2.815,55.978,55.978,0,0,0,.74,6.429,43.416,43.416,0,0,1,.29,5.137A3.886,3.886,0,0,1,369.292,1595.737Z" transform="translate(-354.577 -1544.728)" fill="#ff6041"/>
      <ellipse id="Ellipse_9" data-name="Ellipse 9" cx="6.182" cy="3.164" rx="6.182" ry="3.164" transform="translate(4.716)" fill="#020106"/>
    </g>
    <g id="Group_202" data-name="Group 202" transform="translate(350.393 220.115)">
      <path id="Path_150" data-name="Path 150" d="M1546.239,260.837V255.7H1537.4v5.166c-3.831.842-6.5,2.743-6.5,4.934v16.21h21.927V265.8C1552.827,263.58,1550.114,261.679,1546.239,260.837Z" transform="translate(-1530.9 -253.712)" fill="#fff" stroke="#020106" stroke-miterlimit="10" stroke-width="5"/>
      <path id="Path_151" data-name="Path 151" d="M1560.675,354.248H1552.4c-2.075,0-3.8-.784-3.962-1.8a22.744,22.744,0,0,1,0-7.749v-.015c.174-1.016,1.9-1.785,3.962-1.785h7.328c2.336,0,4.194.987,3.976,2.133a6.348,6.348,0,0,0-.116,1.422,15.105,15.105,0,0,0,.755,3.236,10.516,10.516,0,0,1,.29,2.6C1564.651,353.378,1562.866,354.248,1560.675,354.248Z" transform="translate(-1545.611 -328.258)" fill="#ff6041"/>
      <path id="Path_152" data-name="Path 152" d="M1574.956,245.338h-9.288a1.66,1.66,0,0,1-1.669-1.669h0a1.66,1.66,0,0,1,1.669-1.669h9.288a1.66,1.66,0,0,1,1.669,1.669h0A1.66,1.66,0,0,1,1574.956,245.338Z" transform="translate(-1559.197 -242)" fill="#020106"/>
    </g>
    <g id="Group_203" data-name="Group 203" transform="translate(286.976 439.823)">
      <path id="Path_153" data-name="Path 153" d="M1109.239,1774.837V1769.7H1100.4v5.166c-3.831.842-6.5,2.743-6.5,4.934v16.21h21.927V1779.8C1115.827,1777.58,1113.114,1775.679,1109.239,1774.837Z" transform="translate(-1093.9 -1767.712)" fill="#fff" stroke="#020106" stroke-miterlimit="10" stroke-width="5"/>
      <path id="Path_154" data-name="Path 154" d="M1123.674,1868.248H1115.4c-2.075,0-3.8-.784-3.962-1.8a22.75,22.75,0,0,1,0-7.749v-.015c.174-1.016,1.9-1.785,3.962-1.785h7.328c2.336,0,4.194.987,3.976,2.133a6.341,6.341,0,0,0-.116,1.422,15.089,15.089,0,0,0,.755,3.236,10.53,10.53,0,0,1,.29,2.6C1127.651,1867.377,1125.866,1868.248,1123.674,1868.248Z" transform="translate(-1108.611 -1842.258)" fill="#ff6041"/>
      <path id="Path_155" data-name="Path 155" d="M1137.956,1759.338h-9.287a1.66,1.66,0,0,1-1.669-1.669h0a1.66,1.66,0,0,1,1.669-1.669h9.287a1.66,1.66,0,0,1,1.669,1.669h0A1.66,1.66,0,0,1,1137.956,1759.338Z" transform="translate(-1122.197 -1756)" fill="#020106"/>
    </g>
  </g>
</svg>
